<svg width="192" height="192" viewBox="0 0 192 192" fill="none" xmlns="http://www.w3.org/2000/svg">
  <rect width="192" height="192" rx="48" fill="#3B82F6"/>
  <path d="M96 48C121.405 48 142 68.5949 142 94C142 119.405 121.405 140 96 140C70.5949 140 50 119.405 50 94C50 68.5949 70.5949 48 96 48Z" fill="white" fill-opacity="0.9"/>
  <path d="M88 72V80H80C77.7909 80 76 81.7909 76 84V108C76 110.209 77.7909 112 80 112H112C114.209 112 116 110.209 116 108V84C116 81.7909 114.209 80 112 80H104V72C104 67.5817 100.418 64 96 64C91.5817 64 88 67.5817 88 72Z" fill="#3B82F6"/>
  <path d="M92 72C92 69.7909 93.7909 68 96 68C98.2091 68 100 69.7909 100 72V80H92V72Z" fill="#3B82F6"/>
  <path d="M86 96H106M86 102H106" stroke="#3B82F6" stroke-width="3" stroke-linecap="round"/>
</svg>